<svg width="40" height="40" viewBox="0 0 40 40" fill="none" xmlns="http://www.w3.org/2000/svg">
<path d="M8.79688 39.7109C7.98209 40.3852 6.75024 39.8057 6.75 38.748V33.125H5C2.23871 33.125 0.000213367 30.8862 0 28.125V5C2.31939e-06 2.23858 2.23858 3.09242e-06 5 0H35C37.7614 0 40 2.23858 40 5V28.125C39.9998 30.8862 37.7613 33.125 35 33.125H16.75L8.79688 39.7109Z" fill="#8C1D40"/>
<g clip-path="url(#clip0_162_64)">
<path d="M24.6634 20.5574L29.1844 25.0541M27.0338 14.8771C27.0338 19.3072 23.4232 22.8985 18.9693 22.8985C14.5154 22.8985 10.9048 19.3072 10.9048 14.8771C10.9048 10.447 14.5154 6.85571 18.9693 6.85571C23.4232 6.85571 27.0338 10.447 27.0338 14.8771Z" stroke="#FFC627" stroke-width="1.71123" stroke-linecap="round" stroke-linejoin="round"/>
<path d="M19.032 10.7061V11.1814M19.032 18.7869V19.2622M15.2089 14.9841H14.731M16.3148 12.2814L15.9257 11.8944M21.7493 12.2814L22.1384 11.8944M16.3148 17.6888L15.9257 18.0739M21.7493 17.6888L22.1384 18.0739M23.3331 14.9841H22.8552M20.9436 14.9841C20.9436 16.0342 20.0878 16.8855 19.032 16.8855C17.9763 16.8855 17.1204 16.0342 17.1204 14.9841C17.1204 13.934 17.9763 13.0828 19.032 13.0828C20.0878 13.0828 20.9436 13.934 20.9436 14.9841Z" stroke="#FFC627" stroke-width="0.855615" stroke-linecap="round" stroke-linejoin="round"/>
</g>
<defs>
<clipPath id="clip0_162_64">
<rect width="20" height="20" fill="white" transform="translate(10 6)"/>
</clipPath>
</defs>
</svg>
